<svg width="107" height="53" viewBox="0 0 107 53" fill="none" xmlns="http://www.w3.org/2000/svg">
<path d="M0.734863 32.5712L18.3232 22.4166L18.3232 42.0173L0.734864 52.1719L0.734863 32.5712Z" fill="#F3F3F3"/>
<path d="M35.9116 32.5712L18.3232 22.4166L18.3232 42.0173L35.9116 52.1719V32.5712Z" fill="#F3F3F3"/>
<path d="M35.9116 32.5712L53.4999 22.4166V42.0173L35.9116 52.1719V32.5712Z" fill="#F3F3F3"/>
<path d="M71.0883 32.5712L53.4999 22.4166V42.0173L71.0883 52.1719V32.5712Z" fill="#F3F3F3"/>
<path d="M71.0883 32.5712L88.6766 22.4166V42.0173L71.0883 52.1719V32.5712Z" fill="#F3F3F3"/>
<path d="M106.265 32.5712L88.6766 22.4166V42.0173L106.265 52.1719L106.265 32.5712Z" fill="#F3F3F3"/>
<path d="M7.38402 10.0107L21.6734 1.76074L21.6734 32.6998L7.38402 40.9498L7.38402 10.0107Z" fill="white" fill-opacity="0.7" stroke="#202020" stroke-width="1.5"/>
<path d="M37.262 10.0107L22.9726 1.76074L22.9726 32.6998L37.262 40.9498L37.262 10.0107Z" fill="white" fill-opacity="0.5" stroke="#202020" stroke-width="1.5"/>
<path d="M10.3898 15.3034L12.511 11.6293M18.6678 29.0747L16.5465 32.7489M10.3898 18.5694L15.3394 9.99633M18.6678 25.8088L13.7181 34.3818M10.3898 21.8353L18.1678 8.36337M18.6678 14.1028L10.8898 27.5747M10.3898 25.1012L18.1678 11.6293M18.6678 17.5747L10.8898 31.0466M18.6678 21.6028L10.8898 35.0747" stroke="#404144"/>
<path d="M10.3898 15.3034L12.511 11.6293M18.6678 29.0747L16.5465 32.7489M10.3898 18.5694L15.3394 9.99633M18.6678 25.8088L13.7181 34.3818M10.3898 21.8353L18.1678 8.36337M18.6678 14.1028L10.8898 27.5747M10.3898 25.1012L18.1678 11.6293M18.6678 17.5747L10.8898 31.0466M18.6678 21.6028L10.8898 35.0747" stroke="url(#paint0_linear)" style="mix-blend-mode:overlay"/>
<path d="M38.561 10.0107L52.8504 1.76074L52.8504 32.6998L38.561 40.9498L38.561 10.0107Z" fill="white" fill-opacity="0.7" stroke="#202020" stroke-width="1.5"/>
<path d="M68.439 10.0107L54.1496 1.76074L54.1496 32.6998L68.439 40.9498L68.439 10.0107Z" fill="white" fill-opacity="0.5" stroke="#202020" stroke-width="1.5"/>
<path d="M41.5668 15.3034L43.688 11.6293M49.8448 29.0747L47.7235 32.7489M41.5668 18.5694L46.5164 9.99633M49.8448 25.8088L44.8951 34.3818M41.5668 21.8353L49.3448 8.36337M49.8448 14.1028L42.0668 27.5747M41.5668 25.1012L49.3448 11.6293M49.8448 17.5747L42.0668 31.0466M49.8448 21.6028L42.0668 35.0747" stroke="#404144"/>
<path d="M41.5668 15.3034L43.688 11.6293M49.8448 29.0747L47.7235 32.7489M41.5668 18.5694L46.5164 9.99633M49.8448 25.8088L44.8951 34.3818M41.5668 21.8353L49.3448 8.36337M49.8448 14.1028L42.0668 27.5747M41.5668 25.1012L49.3448 11.6293M49.8448 17.5747L42.0668 31.0466M49.8448 21.6028L42.0668 35.0747" stroke="url(#paint1_linear)" style="mix-blend-mode:overlay"/>
<path d="M69.738 10.0107L84.0274 1.76074L84.0274 32.6998L69.738 40.9498L69.738 10.0107Z" fill="white" fill-opacity="0.7" stroke="#202020" stroke-width="1.5"/>
<path d="M99.616 10.0107L85.3266 1.76074L85.3266 32.6998L99.616 40.9498L99.616 10.0107Z" fill="white" fill-opacity="0.5" stroke="#202020" stroke-width="1.5"/>
<path d="M72.7438 15.3034L74.865 11.6293M81.0218 29.0747L78.9005 32.7489M72.7438 18.5694L77.6934 9.99633M81.0218 25.8088L76.0721 34.3818M72.7438 21.8353L80.5218 8.36337M81.0218 14.1028L73.2438 27.5747M72.7438 25.1012L80.5218 11.6293M81.0218 17.5747L73.2438 31.0466M81.0218 21.6028L73.2438 35.0747" stroke="#404144"/>
<path d="M72.7438 15.3034L74.865 11.6293M81.0218 29.0747L78.9005 32.7489M72.7438 18.5694L77.6934 9.99633M81.0218 25.8088L76.0721 34.3818M72.7438 21.8353L80.5218 8.36337M81.0218 14.1028L73.2438 27.5747M72.7438 25.1012L80.5218 11.6293M81.0218 17.5747L73.2438 31.0466M81.0218 21.6028L73.2438 35.0747" stroke="url(#paint2_linear)" style="mix-blend-mode:overlay"/>
<defs>
<linearGradient id="paint0_linear" x1="14.5288" y1="-25.4915" x2="42.8469" y2="23.557" gradientUnits="userSpaceOnUse">
<stop stop-color="white"/>
<stop offset="1" stop-color="white" stop-opacity="0"/>
</linearGradient>
<linearGradient id="paint1_linear" x1="45.7058" y1="-25.4915" x2="74.0239" y2="23.557" gradientUnits="userSpaceOnUse">
<stop stop-color="white"/>
<stop offset="1" stop-color="white" stop-opacity="0"/>
</linearGradient>
<linearGradient id="paint2_linear" x1="76.8828" y1="-25.4915" x2="105.201" y2="23.557" gradientUnits="userSpaceOnUse">
<stop stop-color="white"/>
<stop offset="1" stop-color="white" stop-opacity="0"/>
</linearGradient>
</defs>
</svg>
