<svg width="73" height="44" viewBox="0 0 73 44" fill="none" xmlns="http://www.w3.org/2000/svg">
<path d="M3.54246 16.0183H69.4038L72.5156 29.6769C72.5156 29.6769 67.4886 43.552 37.3254 43.552C23.4822 43.552 6.17491 36.5962 0.727228 29.6769L3.54246 16.0183Z" fill="#F3F3F3"/>
<path d="M9 28.3992V3.24292C9 3.24292 18.2655 11.7486 38.1128 11.843C38.2236 11.8435 38.3347 11.8438 38.4462 11.8438C44.6486 11.8438 49.4959 11.0229 53.2335 9.88835C61.594 7.35044 64.4012 3.24292 64.4012 3.24292V28.3992C64.4012 28.3992 58.5231 37 38.4462 37C38.3347 37 38.2236 36.9998 38.1128 36.9992C31.6725 36.9686 26.3464 36.0523 22.0895 34.8283C13.2279 32.2804 9 28.3992 9 28.3992Z" fill="white" fill-opacity="0.5"/>
<path d="M22.0895 9.75776V35.0155M38.1128 11.7423V37M53.2335 9.75776V35.0155M9 3.24292V28.3992C9 28.3992 18.3692 37 38.4462 37C58.5231 37 64.4012 28.3992 64.4012 28.3992V3.24292C64.4012 3.24292 58.5231 11.8438 38.4462 11.8438C18.3692 11.8438 9 3.24292 9 3.24292Z" stroke="#202020" stroke-width="1.5"/>
<path d="M55.7521 14.94L57.5131 12.165M61.7127 25.8673L59.9518 28.6423M55.6462 17.4678L59.7552 10.9929M61.8186 23.3395L57.7097 29.8145M55.5403 19.9956L61.9973 9.82066M62.1982 14.2791L55.7412 24.4541M55.4345 22.5234L61.8914 12.3485M62.0856 16.9664L55.6287 27.1413M61.955 20.0841L55.4981 30.2591" stroke="#404144"/>
<path d="M55.7521 14.94L57.5131 12.165M61.7127 25.8673L59.9518 28.6423M55.6462 17.4678L59.7552 10.9929M61.8186 23.3395L57.7097 29.8145M55.5403 19.9956L61.9973 9.82066M62.1982 14.2791L55.7412 24.4541M55.4345 22.5234L61.8914 12.3485M62.0856 16.9664L55.6287 27.1413M61.955 20.0841L55.4981 30.2591" stroke="url(#paint0_linear)" style="mix-blend-mode:overlay"/>
<path d="M18.5506 14.0365L16.7896 11.2615M12.59 24.9637L14.351 27.7387M18.6565 16.5643L14.5476 10.0893M12.4841 22.4359L16.5931 28.9109M18.7624 19.0921L12.3055 8.91709M12.1046 13.3756L18.5615 23.5505M18.8683 21.6198L12.4114 11.4449M12.2171 16.0628L18.6741 26.2378M12.3477 19.1805L18.8047 29.3555" stroke="#404144"/>
<path d="M18.5506 14.0365L16.7896 11.2615M12.59 24.9637L14.351 27.7387M18.6565 16.5643L14.5476 10.0893M12.4841 22.4359L16.5931 28.9109M18.7624 19.0921L12.3055 8.91709M12.1046 13.3756L18.5615 23.5505M18.8683 21.6198L12.4114 11.4449M12.2171 16.0628L18.6741 26.2378M12.3477 19.1805L18.8047 29.3555" stroke="url(#paint1_linear)" style="mix-blend-mode:overlay"/>
<defs>
<linearGradient id="paint0_linear" x1="60.2784" y1="-16.5007" x2="80.6061" y2="22.3805" gradientUnits="userSpaceOnUse">
<stop stop-color="white"/>
<stop offset="1" stop-color="white" stop-opacity="0"/>
</linearGradient>
<linearGradient id="paint1_linear" x1="14.0244" y1="-17.4043" x2="-6.30334" y2="21.477" gradientUnits="userSpaceOnUse">
<stop stop-color="white"/>
<stop offset="1" stop-color="white" stop-opacity="0"/>
</linearGradient>
</defs>
</svg>
