<svg width="129" height="39" viewBox="0 0 129 39" fill="none" xmlns="http://www.w3.org/2000/svg">
<path d="M0.197998 14.0183H91.8021L128.802 38.5916H37.198L0.197998 14.0183Z" fill="#F3F3F3"/>
<rect x="27.2501" y="0.75" width="60.5" height="20.5" stroke="#202020" stroke-width="1.5"/>
<path d="M30.7332 6.49993L33.0395 4.1936M53.2619 4.1936L38.514 17.8064M30.7332 9.57503L36.1146 4.1936M49.8324 4.1936L34.8954 17.8064M30.7332 12.6501L39.544 4.1936M46.403 4.1936L31.2768 17.8064M30.7332 15.7252L42.9735 4.1936M56.6913 4.1936L42.1327 17.8064M60.1208 4.1936L45.7513 17.8064M63.5502 4.1936L49.3699 17.8064M66.9797 4.1936L52.9886 17.8064M70.4092 4.1936L56.6072 17.8064M73.8386 4.1936L60.2258 17.8064M76.831 4.1936L63.2182 17.8064M80.1796 4.1936L66.5668 17.8064M83.6706 4.1936L70.0579 17.8064M73.1248 17.8064L85.3652 6.27476M76.5543 18.0316L85.3652 9.57503M79.9837 18.0316L85.3652 12.6501M83.0588 18.0316L85.3652 15.7252" stroke="#404144"/>
<path d="M30.7332 6.49993L33.0395 4.1936M53.2619 4.1936L38.514 17.8064M30.7332 9.57503L36.1146 4.1936M49.8324 4.1936L34.8954 17.8064M30.7332 12.6501L39.544 4.1936M46.403 4.1936L31.2768 17.8064M30.7332 15.7252L42.9735 4.1936M56.6913 4.1936L42.1327 17.8064M60.1208 4.1936L45.7513 17.8064M63.5502 4.1936L49.3699 17.8064M66.9797 4.1936L52.9886 17.8064M70.4092 4.1936L56.6072 17.8064M73.8386 4.1936L60.2258 17.8064M76.831 4.1936L63.2182 17.8064M80.1796 4.1936L66.5668 17.8064M83.6706 4.1936L70.0579 17.8064M73.1248 17.8064L85.3652 6.27476M76.5543 18.0316L85.3652 9.57503M79.9837 18.0316L85.3652 12.6501M83.0588 18.0316L85.3652 15.7252" stroke="url(#paint0_linear)" style="mix-blend-mode:overlay"/>
<path d="M56.25 21.6568V1.28279L78.75 13.9473V33.7456L56.25 21.6568Z" fill="white" fill-opacity="0.9" stroke="#202020" stroke-width="1.5"/>
<defs>
<linearGradient id="paint0_linear" x1="58.0492" y1="-17.0246" x2="58.0492" y2="21.5679" gradientUnits="userSpaceOnUse">
<stop stop-color="white"/>
<stop offset="1" stop-color="white" stop-opacity="0"/>
</linearGradient>
</defs>
</svg>
