<svg width="112" height="40" viewBox="0 0 112 40" fill="none" xmlns="http://www.w3.org/2000/svg">
<path d="M22.0621 30.2654H94.2586L111.302 39.271H0.697998L22.0621 30.2654Z" fill="#F3F3F3"/>
<rect x="40.75" y="0.75" width="17.5" height="33.5" stroke="#202020" stroke-width="1.5"/>
<rect x="74.75" y="0.75" width="17.5" height="33.5" stroke="#202020" stroke-width="1.5"/>
<rect x="57.75" y="0.75" width="17.5" height="33.5" stroke="#202020" stroke-width="1.5"/>
<path d="M61 7L64 4M72.7071 28.7071L69.7071 31.7071M61 11L68 4M72.7071 24.7071L65.7071 31.7071M61 24L72 13M72.7071 20.7071L61.7071 31.7071M61 28L72 17M61 20L72 9M61 15.5L72 4.5" stroke="#202020"/>
<path d="M27 7L30 4M38.7071 28.7071L35.7071 31.7071M27 11L34 4M38.7071 24.7071L31.7071 31.7071M27 24L38 13M38.7071 20.7071L27.7071 31.7071M27 28L38 17M27 20L38 9M27 15.5L38 4.5" stroke="#202020"/>
<rect x="23.75" y="0.75" width="17.5" height="33.5" stroke="#202020" stroke-width="1.5"/>
<path fill-rule="evenodd" clip-rule="evenodd" d="M45.8877 11.2819C46.6843 15.9933 39.8562 19.4966 48.1637 23C46.3429 19.8591 48.3913 19.8591 48.1637 17.443C48.5051 17.8054 48.7327 18.1678 48.6189 18.651C49.5293 18.1678 50.0983 16.8389 50.2121 15.1477C51.5777 16.7181 50.2121 18.7718 51.1225 20.1007C51.1225 19.4966 51.1225 19.0134 51.3501 18.4094C52.2605 19.7383 52.4881 21.3087 51.8053 23C58.4058 17.8054 52.4881 15.6309 53.9675 9.83221C52.8295 10.3154 51.9191 11.2819 51.4639 12.9732C49.8707 11.0403 48.9603 8.62416 49.8707 5C44.8634 10.3154 48.7327 11.0403 47.4809 15.3893C47.3671 13.3356 46.9119 11.8859 45.8877 11.2819Z" fill="#202020"/>
<line x1="43" y1="28.5858" x2="49.5858" y2="22" stroke="#202020" stroke-width="2" stroke-linecap="round"/>
</svg>
