<svg width="90" height="90" viewBox="0 0 90 90" fill="none" xmlns="http://www.w3.org/2000/svg">
<rect width="90" height="90" fill="#F06326"/>
<path d="M54.4193 73.8711H46.4041L43.21 65.579H20.9723L32.061 37.3132H39.8352L54.4193 73.8711ZM40.8597 59.4053L35.8577 45.8474L30.916 59.4053H40.8597Z" fill="white"/>
<path d="M39.835 67.5764H16.5125V37.1921H9.16016V73.75H42.3661L39.835 67.5764Z" fill="white"/>
<path d="M81.9598 57.8316C80.7545 56.258 79.0671 55.1685 76.8373 54.5027C78.4042 53.7764 79.6697 52.6869 80.5737 51.2948C81.4777 49.8422 81.9598 48.2685 81.9598 46.5738C81.9598 45.0001 81.5982 43.5474 80.8148 42.2764C80.0916 41.0053 79.1274 39.9764 78.0426 39.1895C76.8976 38.4027 75.632 37.9185 74.2459 37.6764C72.8598 37.4343 70.6903 37.3132 67.7976 37.3132H44.5956L46.7049 42.9422H64.8446C68.0989 42.9422 70.0876 43.0027 70.7505 43.0632C71.8956 43.1843 72.7995 43.608 73.3419 44.2738C73.9446 44.9395 74.1856 45.7869 74.1856 46.8764C74.1856 47.9659 73.824 48.8738 73.1611 49.6001C72.4982 50.2659 71.534 50.6895 70.389 50.8106C69.726 50.8711 68.0386 50.9317 65.3267 50.9317H53.2135V64.8527L56.7691 73.8711H65.628C70.3287 73.8106 73.2817 73.9922 74.487 73.8711C76.4154 73.629 78.1029 73.0843 79.4287 72.1159C80.7545 71.1474 81.8393 69.9369 82.5625 68.3027C83.3459 66.729 83.7075 65.0948 83.7075 63.4001C83.7678 61.2816 83.1651 59.4053 81.9598 57.8316ZM72.9201 65.8211C72.2572 66.5474 71.4135 67.0316 70.389 67.2132C69.726 67.3343 68.1592 67.3948 65.628 67.3948H59.1797V58.1948H64.7843C67.9181 58.1948 69.9671 58.3764 70.9313 58.679C71.8956 58.9816 72.6188 59.5264 73.1009 60.2527C73.583 60.979 73.8241 61.8264 73.8241 62.9159C73.8843 64.1264 73.583 65.0948 72.9201 65.8211Z" fill="white"/>
<path d="M8.4375 33.9844V26.7212H13.9819V33.9844H12.9574V27.508H9.40174V33.9844H8.4375Z" fill="white"/>
<path d="M21.1534 33.1975V33.9844H15.9706V26.7212H21.0328V27.508H16.9348V29.808H20.1891V30.5343H16.9348V33.137H21.1534V33.1975Z" fill="white"/>
<path d="M23.5638 33.9844H22.5393V26.7212H25.3718C26.2757 26.7212 26.9386 26.9633 27.3605 27.387C27.7823 27.8107 28.0234 28.2949 28.0234 28.9001C28.0234 29.5054 27.7823 30.0501 27.3605 30.4738C26.8784 30.8975 26.2757 31.0791 25.5525 31.0791H23.6241V33.9844H23.5638ZM23.5638 30.2922H25.432C25.9141 30.2922 26.2757 30.1712 26.577 29.9291C26.8784 29.687 26.9989 29.3238 26.9989 28.9001C26.9989 28.537 26.8784 28.2343 26.6373 27.9317C26.3963 27.6291 26.0347 27.508 25.4923 27.508H23.5638V30.2922Z" fill="white"/>
<path d="M34.4721 33.1975V33.9844H29.2893V26.7212H34.3515V27.508H30.2535V29.808H33.5078V30.5343H30.2535V33.137H34.4721V33.1975Z" fill="white"/>
<path d="M35.9185 33.9844V26.7212H40.0164V27.508H36.8827V33.9844H35.9185Z" fill="white"/>
<path d="M43.4517 34.1053C42.4272 34.1053 41.6437 33.7422 41.0411 33.0159C40.4384 32.2896 40.1974 31.3817 40.1974 30.3527C40.1974 29.2632 40.4987 28.3553 41.1014 27.629C41.704 26.9027 42.4875 26.5396 43.512 26.5396C44.4762 26.5396 45.3199 26.9027 45.9226 27.5685C46.5252 28.2948 46.8265 29.1422 46.8265 30.2317C46.8265 31.2606 46.5252 32.1685 45.9828 32.8948C45.3199 33.7422 44.4762 34.1053 43.4517 34.1053ZM43.4517 33.379C44.1749 33.379 44.7173 33.0764 45.0789 32.5317C45.5007 31.9264 45.6815 31.2001 45.6815 30.2922C45.6815 29.3843 45.5007 28.658 45.0789 28.1132C44.657 27.5685 44.1146 27.3264 43.4517 27.3264C42.7888 27.3264 42.2464 27.629 41.8245 28.1738C41.4027 28.7185 41.2219 29.4448 41.2219 30.4132C41.2219 31.3211 41.4027 32.0474 41.8245 32.5922C42.2464 33.1369 42.7888 33.379 43.4517 33.379Z" fill="white"/>
<path d="M49.2972 33.9844H48.2727V26.7212H51.1052C52.0091 26.7212 52.672 26.9633 53.0939 27.387C53.5157 27.8107 53.7568 28.2949 53.7568 28.9001C53.7568 29.5054 53.5157 30.0501 53.0939 30.4738C52.6118 30.8975 52.0091 31.0791 51.2859 31.0791H49.3575V33.9844H49.2972ZM49.2972 30.2922H51.1654C51.6475 30.2922 52.0091 30.1712 52.3105 29.9291C52.6118 29.687 52.7323 29.3238 52.7323 28.9001C52.7323 28.537 52.6118 28.2343 52.3707 27.9317C52.1297 27.6291 51.7681 27.508 51.2257 27.508H49.2972V30.2922Z" fill="white"/>
<path d="M57.7945 34.1053C56.77 34.1053 55.9865 33.7422 55.3839 33.0159C54.7812 32.2896 54.5402 31.3817 54.5402 30.3527C54.5402 29.2632 54.8415 28.3553 55.4441 27.629C56.0468 26.9027 56.8302 26.5396 57.8547 26.5396C58.819 26.5396 59.6627 26.9027 60.2653 27.5685C60.868 28.2948 61.1693 29.1422 61.1693 30.2317C61.1693 31.2606 60.868 32.1685 60.3256 32.8948C59.6024 33.7422 58.819 34.1053 57.7945 34.1053ZM57.7945 33.379C58.5176 33.379 59.06 33.0764 59.4216 32.5317C59.8435 31.9264 60.0243 31.2001 60.0243 30.2922C60.0243 29.3843 59.8435 28.658 59.4216 28.1132C58.9997 27.5685 58.4574 27.3264 57.7945 27.3264C57.1315 27.3264 56.5892 27.629 56.1673 28.1738C55.7455 28.7185 55.5647 29.4448 55.5647 30.4132C55.5647 31.3211 55.7455 32.0474 56.1673 32.5922C56.5892 33.1369 57.1315 33.379 57.7945 33.379Z" fill="white"/>
<path d="M61.953 33.1975L64.3034 26.7212H65.9908L68.3411 33.1975H68.8232V35.4975H68.0398L67.9193 33.9843H62.4954L62.3749 35.4975H61.5914V33.1975H61.953ZM62.9173 33.1975H67.2564L65.3279 27.4475H64.906L62.9173 33.1975Z" fill="white"/>
<path d="M76.1751 33.9844H75.0903L72.6797 29.9896L70.8718 32.0475V33.9844H69.8473V26.7212H70.8718V30.8975L74.4877 26.7212H75.5724L73.4029 29.2633L76.1751 33.9844Z" fill="white"/>
<path d="M82.8041 33.9844H81.7796L80.9359 31.8659H77.9829L77.2597 33.9844H76.416L79.0074 26.7212H80.1524L82.8041 33.9844ZM80.7551 31.2001L79.4895 27.6896L78.224 31.2001H80.7551Z" fill="white"/>
</svg>
