<svg width="16" height="16" viewBox="0 0 16 16" fill="none" xmlns="http://www.w3.org/2000/svg">
<path d="M2.07436 0H14.2469C15.0254 0 15.6587 0.633318 15.6587 1.41176V14.5882C15.6587 15.3667 15.0254 16 14.2469 16H2.07436C1.29592 16 0.662598 15.3667 0.662598 14.5882V1.41176C0.662598 0.633318 1.29592 0 2.07436 0ZM1.60377 14.5882C1.60377 14.8477 1.81488 15.0588 2.07436 15.0588H14.2469C14.5064 15.0588 14.7175 14.8477 14.7175 14.5882V1.41176C14.7175 1.15228 14.5064 0.941177 14.2469 0.941177H2.07436C1.81488 0.941177 1.60377 1.15228 1.60377 1.41176V14.5882Z" fill="white"/>
<path d="M3.10967 2.22219H13.2116C13.4715 2.22219 13.6822 2.43289 13.6822 2.69278V5.50586C13.6822 5.76575 13.4715 5.97645 13.2116 5.97645H3.10967C2.84978 5.97645 2.63908 5.76575 2.63908 5.50586V2.69278C2.63908 2.43289 2.84978 2.22219 3.10967 2.22219ZM3.58025 5.03528H12.741V3.16337H3.58025V5.03528Z" fill="white"/>
<path d="M10.7959 7.1582H12.6783C12.9382 7.1582 13.1489 7.3689 13.1489 7.62879V9.51114C13.1489 9.77103 12.9382 9.98173 12.6783 9.98173H10.7959C10.536 9.98173 10.3253 9.77103 10.3253 9.51114V7.62879C10.3253 7.36887 10.536 7.1582 10.7959 7.1582ZM11.2665 9.04055H12.2077V8.09938H11.2665V9.04055Z" fill="white"/>
<path d="M10.7959 10.9542H12.6783C12.9382 10.9542 13.1489 11.1649 13.1489 11.4248V13.3072C13.1489 13.5671 12.9382 13.7778 12.6783 13.7778H10.7959C10.536 13.7778 10.3253 13.5671 10.3253 13.3072V11.4248C10.3253 11.1649 10.536 10.9542 10.7959 10.9542ZM11.2665 12.8366H12.2077V11.8954H11.2665V12.8366Z" fill="white"/>
<path d="M6.9528 7.1582H8.83516C9.09505 7.1582 9.30575 7.3689 9.30575 7.62879V9.51114C9.30575 9.77103 9.09505 9.98173 8.83516 9.98173H6.9528C6.69291 9.98173 6.48222 9.77103 6.48222 9.51114V7.62879C6.48222 7.36887 6.69291 7.1582 6.9528 7.1582ZM7.42339 9.04055H8.36457V8.09938H7.42339V9.04055Z" fill="white"/>
<path d="M6.9528 10.9542H8.83516C9.09505 10.9542 9.30575 11.1649 9.30575 11.4248V13.3072C9.30575 13.5671 9.09505 13.7778 8.83516 13.7778H6.9528C6.69291 13.7778 6.48222 13.5671 6.48222 13.3072V11.4248C6.48222 11.1649 6.69291 10.9542 6.9528 10.9542ZM7.42339 12.8366H8.36457V11.8954H7.42339V12.8366Z" fill="white"/>
<path d="M3.10969 7.1582H4.99205C5.25194 7.1582 5.46263 7.3689 5.46263 7.62879V13.3072C5.46263 13.5671 5.25194 13.7778 4.99205 13.7778H3.10969C2.8498 13.7778 2.6391 13.5671 2.6391 13.3072V7.62879C2.6391 7.36887 2.8498 7.1582 3.10969 7.1582ZM3.58028 12.8366H4.52146V8.09938H3.58028V12.8366Z" fill="white"/>
</svg>
