<svg width="12" height="12" viewBox="0 0 12 12" fill="none" xmlns="http://www.w3.org/2000/svg">
<path d="M5.99914 0C9.31277 0 11.999 2.68634 11.999 5.99984C11.999 9.31334 9.31277 12 5.99918 12C2.6856 12 -0.000859261 9.31346 -0.000859261 5.99984C-0.000859261 2.68622 2.68556 0 5.99914 0ZM5.58482 6.73353C5.58514 6.74929 5.5875 6.76505 5.5897 6.78085C5.59126 6.79269 5.59198 6.80481 5.59466 6.81645C5.59734 6.82857 5.60194 6.84053 5.60586 6.85265C5.61054 6.86729 5.6149 6.88189 5.62102 6.89569C5.62218 6.89809 5.62258 6.90065 5.62362 6.90305C5.63266 6.92233 5.64314 6.94041 5.65462 6.95753C5.65534 6.95857 5.6563 6.95961 5.65702 6.96065C5.6701 6.97985 5.68502 6.99729 5.7007 7.01365C5.70506 7.01813 5.7095 7.02217 5.7141 7.02641C5.7279 7.03957 5.74242 7.05161 5.75786 7.06261C5.76262 7.06605 5.76718 7.06965 5.77218 7.07297C5.79198 7.08593 5.81274 7.09733 5.83434 7.10669C5.83902 7.10877 5.8439 7.11001 5.84866 7.11189C5.8669 7.11893 5.88538 7.12477 5.90446 7.12921C5.9113 7.13085 5.91806 7.13233 5.92502 7.13357C5.9495 7.13805 5.9743 7.14113 5.99942 7.14113C6.0045 7.14113 6.0097 7.13957 6.01478 7.13937C6.03886 7.13845 6.0627 7.13657 6.08562 7.13169C6.09278 7.13013 6.09982 7.12701 6.10698 7.12505C6.12834 7.11925 6.14922 7.11281 6.16914 7.10389C6.17142 7.10273 6.17382 7.10253 6.1761 7.10149L8.47672 6.01632C8.684 5.9186 8.7728 5.67128 8.67508 5.464C8.57736 5.25683 8.33004 5.16791 8.12276 5.26564L6.41411 6.0714V2.48998C6.41411 2.26082 6.2283 2.07501 5.99914 2.07501C5.76998 2.07501 5.58418 2.26082 5.58418 2.48998V6.72604H5.5841C5.5841 6.72852 5.58482 6.73101 5.58482 6.73353Z" fill="#595C64"/>
</svg>
