<svg width="9" height="13" viewBox="0 0 9 13" fill="none" xmlns="http://www.w3.org/2000/svg">
<g clip-path="url(#clip0)">
<path d="M4.50002 0C6.95944 0 8.96033 2.11204 8.96033 4.70808C8.96033 7.92984 4.96879 12.6596 4.79884 12.8593C4.63922 13.047 4.36052 13.0467 4.20119 12.8593C4.03125 12.6596 0.0397034 7.92984 0.0397034 4.70808C0.0397511 2.11204 2.04061 0 4.50002 0ZM4.50002 7.07684C5.73742 7.07684 6.74409 6.01422 6.74409 4.70808C6.74409 3.40193 5.73739 2.33934 4.50002 2.33934C3.26264 2.33934 2.25597 3.40196 2.25597 4.7081C2.25597 6.01424 3.26264 7.07684 4.50002 7.07684Z" fill="#595C64"/>
</g>
<defs>
<clipPath id="clip0">
<rect width="9" height="13" fill="white" transform="matrix(-1 0 0 1 9 0)"/>
</clipPath>
</defs>
</svg>
