<svg width="14" height="10" viewBox="0 0 14 10" fill="none" xmlns="http://www.w3.org/2000/svg">
<path d="M12.7499 9.98545C13.0646 9.98545 13.3373 9.89126 13.5691 9.70529L9.60268 6.10985C9.50752 6.17162 9.41528 6.23169 9.32815 6.2888C9.03132 6.48703 8.79041 6.64172 8.60542 6.75257C8.42045 6.86366 8.17436 6.9769 7.86716 7.09251C7.55976 7.20826 7.27338 7.26595 7.00772 7.26595H6.99994H6.99216C6.72647 7.26595 6.44009 7.20829 6.13271 7.09251C5.82533 6.9769 5.57924 6.86366 5.39445 6.75257C5.20949 6.64172 4.96871 6.48706 4.67173 6.2888C4.58897 6.23381 4.49718 6.17347 4.39795 6.10889L0.430786 9.70529C0.66257 9.89126 0.935429 9.98545 1.2501 9.98545H12.7499Z" fill="#595C64"/>
<path d="M0.789143 3.84591C0.492341 3.66654 0.22914 3.46112 0 3.22974V8.69989L3.49597 5.53102C2.79658 5.08843 1.89545 4.52737 0.789143 3.84591Z" fill="#595C64"/>
<path d="M13.2187 3.84591C12.1546 4.49875 11.2502 5.06078 10.5054 5.53228L13.9999 8.70003V3.22974C13.7759 3.45647 13.5155 3.66175 13.2187 3.84591Z" fill="#595C64"/>
<path d="M12.7509 0.0146484H1.25114C0.849943 0.0146484 0.541499 0.137449 0.325423 0.382797C0.10917 0.62826 0.0012207 0.935239 0.0012207 1.30339C0.0012207 1.60076 0.144475 1.92297 0.430856 2.2701C0.717237 2.6171 1.02197 2.88966 1.3449 3.08791C1.52194 3.20129 2.05581 3.53771 2.94652 4.09707C3.42735 4.39909 3.84549 4.66234 4.20482 4.88951C4.51111 5.08295 4.77525 5.25047 4.99333 5.38949C5.01837 5.40541 5.05774 5.43094 5.11 5.46481C5.1663 5.50147 5.23754 5.54798 5.32544 5.60551C5.49469 5.71647 5.63531 5.80616 5.7473 5.87468C5.85913 5.94323 5.99464 6.01979 6.1536 6.1048C6.31243 6.1897 6.46224 6.25355 6.60285 6.29601C6.74349 6.33845 6.87368 6.35973 6.99345 6.35973H7.00123H7.009C7.12875 6.35973 7.25896 6.33845 7.39962 6.29601C7.54021 6.25355 7.68989 6.18984 7.84886 6.1048C8.00766 6.01979 8.14299 5.94306 8.25518 5.87468C8.36717 5.80616 8.50778 5.71649 8.67706 5.60551C8.76478 5.54798 8.83603 5.50144 8.89233 5.46493C8.94461 5.43092 8.98396 5.40555 9.00915 5.38949C9.17904 5.28234 9.44379 5.11551 9.79974 4.89147C10.4474 4.48356 11.4013 3.88317 12.6654 3.08791C13.0456 2.84722 13.3632 2.55676 13.6184 2.21695C13.8733 1.87714 14.001 1.5207 14.001 1.14773C14.001 0.836123 13.8771 0.569486 13.63 0.347408C13.3825 0.125607 13.0894 0.0146484 12.7509 0.0146484Z" fill="#595C64"/>
</svg>
