<svg width="45" height="45" viewBox="0 0 45 45" fill="none" xmlns="http://www.w3.org/2000/svg">
<path fill-rule="evenodd" clip-rule="evenodd" d="M0 0.833333C0 0.373097 0.373095 0 0.833333 0H44.1667C44.6269 0 45 0.37309 45 0.833333V44.3056C45 44.6891 44.6891 45 44.3056 45C43.922 45 43.6111 44.6891 43.6111 44.3056V5.69444H30.2778V41.3889C30.2778 41.8491 29.9047 42.2222 29.4444 42.2222H24.3056V44.1667C24.3056 44.6269 23.9325 45 23.4722 45H0.833333C0.373097 45 0 44.6269 0 44.1667V0.833333ZM24.3056 40.8333H28.8889V32.7083H24.3056V40.8333ZM24.3056 31.3194H28.8889V19.4444H24.3056V31.3194ZM24.3056 18.0556H28.8889V5.69444H24.3056V18.0556ZM22.9167 5.69444H5.41667V13.4028H22.9167V5.69444ZM22.9167 14.7917H5.41667V26.5278H22.9167V14.7917ZM22.9167 27.9167H5.41667V43.6111H22.9167V27.9167ZM4.02778 43.6111V5.69444H1.38889V43.6111H4.02778ZM1.38889 4.30556H43.6111V1.38889H1.38889V4.30556Z" fill="#F46B2A"/>
</svg>
