<svg width="51" height="47" viewBox="0 0 51 47" fill="none" xmlns="http://www.w3.org/2000/svg">
<path d="M32.4396 24.6698C32.0241 24.4609 31.5254 24.628 31.3176 25.0458C30.1956 27.3018 28.6581 29.3071 26.705 30.8946C24.7519 32.524 22.5494 33.652 20.0976 34.3204C19.6405 34.4458 19.3912 34.9053 19.5159 35.3649C19.599 35.7409 19.9314 35.9915 20.3054 35.9915C20.3885 35.9915 20.4716 35.9915 20.5132 35.9498C23.1728 35.1978 25.583 33.9444 27.7439 32.1898C29.8632 30.4351 31.567 28.2627 32.7721 25.7978C33.0214 25.38 32.8552 24.8787 32.4396 24.6698Z" fill="#F76425"/>
<path d="M49.5606 27.9702C50.1009 27.26 50.3502 26.3827 50.2671 25.4636C50.184 24.628 49.7684 23.9178 49.1866 23.3747C49.3944 23.2076 49.5606 23.0404 49.7269 22.8316C50.2671 22.1213 50.5164 21.244 50.4333 20.3249C50.2255 18.5284 48.5633 17.1916 46.7764 17.4004L44.4909 16.2724C43.8675 15.8964 43.1195 15.7293 42.4131 15.7711H42.3715L31.858 16.9409L31.7333 16.8155V16.7738V16.732C31.2346 15.5622 30.9853 14.2253 31.11 12.972L31.484 7.83333V7.79155C31.484 7.24844 31.484 4.57466 30.9022 3.48844C29.8633 1.52488 27.744 0.313328 25.5415 0.396884H25.0844C24.6689 0.396884 24.2949 0.563994 24.0455 0.898217C23.7546 1.19066 23.63 1.56666 23.63 1.98444V2.19333C23.7131 4.36577 23.5884 6.53822 23.2975 8.71066L23.2144 9.37911C22.6742 10.7996 22.0509 12.3871 21.2613 13.5151C20.8042 14.1836 20.2224 15.0609 19.7653 15.98L18.6849 18.0689C18.3109 18.8209 18.1031 19.364 17.9784 19.9907C17.8538 20.7427 17.5213 21.4111 17.0642 21.9124C16.7733 22.2467 16.524 22.4556 15.7344 22.4973L11.4542 22.6644H1.39776C1.18998 22.6644 0.982206 22.748 0.815984 22.9151C0.649762 23.0822 0.56665 23.2911 0.56665 23.5V45.7676C0.56665 46.2271 0.94065 46.6031 1.39776 46.6031H11.4126C11.8698 46.6031 12.2438 46.2271 12.2438 45.7676V42.1329C12.3269 42.1329 12.41 42.1329 12.4515 42.1329L19.7653 41.2138L25.5415 42.6342C27.7024 43.3027 29.9464 43.6787 32.232 43.6787C33.1462 43.6787 34.102 43.6369 35.0578 43.5116L44.2 42.0493C44.2415 42.0493 44.2831 42.0493 44.3246 42.0076C45.1973 41.7151 45.9869 41.0884 46.444 40.2529L46.9426 39.4173C47.5244 39.2084 48.0231 38.8324 48.3971 38.3311C48.9373 37.6209 49.1866 36.7436 49.062 35.8244C48.9789 35.1142 48.688 34.4876 48.2309 33.9862C48.6464 33.7773 49.0204 33.4431 49.3113 33.0671C49.8515 32.3569 50.1009 31.4796 50.0178 30.5604C49.9346 29.7249 49.5191 29.0147 48.9373 28.4716C49.2282 28.388 49.3944 28.1791 49.5606 27.9702ZM10.5815 44.932H2.22887V24.3356L10.5815 24.3773V44.932ZM47.2751 22.4556L42.5793 23.0404L38.8393 23.5C37.9251 23.6253 37.0524 22.9569 36.9693 22.0378C36.9278 21.5782 37.0524 21.1604 37.3018 20.7844C37.5926 20.4084 37.9666 20.1996 38.4238 20.1578L46.8595 19.1133C46.9426 19.1133 46.9842 19.1133 47.0673 19.1133C47.8984 19.1133 48.6464 19.74 48.7295 20.6173C48.7711 21.0769 48.6464 21.4947 48.3971 21.8707C48.1478 22.1631 47.7322 22.4138 47.2751 22.4556ZM47.4829 36.0333C47.5244 36.4929 47.3998 36.9107 47.1504 37.2867C46.8595 37.6627 46.4855 37.8716 46.0284 37.9133L40.7093 38.5818C39.7951 38.7071 38.9224 38.0387 38.8393 37.1196C38.7978 36.66 38.9224 36.2422 39.1718 35.8662C39.4626 35.4902 39.8366 35.2813 40.2938 35.2396L45.6129 34.5711C45.696 34.5711 45.7375 34.5711 45.8206 34.5711C46.6518 34.5711 47.3998 35.1978 47.4829 36.0333ZM48.1062 32.0644C47.8153 32.4404 47.4413 32.6493 46.9842 32.6911L41.8729 33.3178L40.086 33.5267C39.1718 33.652 38.2991 32.9836 38.216 32.0644C38.1744 31.6049 38.2991 31.1871 38.5484 30.8111C38.8393 30.4351 39.2133 30.2262 39.6704 30.1844L46.5271 29.3489C46.6102 29.3489 46.6518 29.3489 46.7349 29.3489C47.566 29.3489 48.314 29.9756 48.3971 30.8529C48.4802 31.2707 48.3555 31.7302 48.1062 32.0644ZM47.1089 27.5942L41.582 28.2627L39.4211 28.5133C38.5069 28.6387 37.6342 27.9702 37.5511 27.0511C37.5095 26.5916 37.6342 26.1738 37.8835 25.7978C38.1744 25.4218 38.5484 25.2129 39.0055 25.1711L46.6518 24.2102C46.7349 24.2102 46.7764 24.2102 46.8595 24.2102C47.6906 24.2102 48.4386 24.8369 48.5218 25.7142C48.5633 26.1738 48.4386 26.5916 48.1893 26.9676C47.9815 27.3018 47.566 27.5524 47.1089 27.5942ZM43.9091 40.42L34.85 41.8822C31.858 42.2582 28.9075 41.9658 26.0818 41.0884H26.0402L20.0978 39.5844C20.0146 39.5427 19.89 39.5427 19.8069 39.5844L12.3269 40.5036V24.3356L15.8175 24.2102C16.9395 24.1684 17.6875 23.8342 18.3524 23.0404C18.9758 22.2884 19.4329 21.3693 19.5991 20.3249C19.6822 19.9489 19.8069 19.5311 20.1393 18.8627L21.2198 16.7738C21.6769 15.8964 22.1755 15.1027 22.6326 14.476C23.5053 13.1809 24.2118 11.5098 24.7935 9.88044C24.7935 9.83866 24.8351 9.75511 24.8351 9.71333L24.9598 8.96133C25.2922 6.70533 25.4169 4.40755 25.3338 2.15155V2.06799H25.6246C27.2038 2.02622 28.6998 2.86177 29.4478 4.28222C29.7386 4.82533 29.8218 6.66355 29.8218 7.74977L29.4478 12.8467C29.3231 14.3924 29.614 15.9382 30.1958 17.3587L30.4451 18.1524L31.4009 21.1604C31.5255 21.5364 31.858 21.7453 32.1904 21.7453C32.2735 21.7453 32.3566 21.7453 32.4398 21.7036C32.8969 21.5782 33.1046 21.0769 32.98 20.6591L32.3566 18.612L42.5378 17.484C42.9533 17.484 43.3689 17.5676 43.7429 17.7764H43.7844L38.3406 18.4449C37.468 18.5702 36.6369 18.988 36.0966 19.6982C35.5564 20.4084 35.3071 21.2858 35.3902 22.2049C35.5149 23.2076 36.0551 24.0431 36.8446 24.5862C36.8031 24.628 36.7615 24.7116 36.6784 24.7533C36.1382 25.4636 35.8889 26.3409 36.0135 27.26C36.1382 28.2627 36.6784 29.0982 37.468 29.6413C37.4264 29.6831 37.3849 29.7667 37.3018 29.8084C36.7615 30.5187 36.5122 31.396 36.5953 32.3151C36.72 33.3178 37.2602 34.1533 38.0498 34.6964C38.0082 34.7382 37.9666 34.8218 37.8835 34.8636C37.3433 35.5738 37.094 36.4511 37.1771 37.3702C37.3849 39.0831 38.8393 40.3364 40.5015 40.3364C40.6262 40.3364 40.7924 40.3364 40.9171 40.2947L44.8233 39.8351C44.5324 40.044 44.2415 40.2529 43.9091 40.42Z" fill="#F76425"/>
</svg>
