<svg width="51" height="48" viewBox="0 0 51 48" fill="none" xmlns="http://www.w3.org/2000/svg">
<path d="M47.5517 9.83237H37.6616L34.5183 3.2827C34.4322 3.10322 34.2784 2.96552 34.0905 2.89967C33.903 2.833 33.6961 2.8444 33.5171 2.93117L29.5653 4.82815L25.02 0.753696C24.872 0.620796 24.6757 0.554496 24.4783 0.563271C24.2795 0.574221 24.0934 0.663621 23.9605 0.811896L15.8787 9.83237H4.09677C2.25874 9.83237 0.752219 11.3157 0.751919 13.1766H0.748169V44.7414C0.748169 46.2278 1.95777 47.4374 3.44419 47.4374H43.6604C45.1468 47.4374 46.356 46.2278 46.356 44.7414V43.5446H47.5517C49.0404 43.5446 50.2518 42.3368 50.2518 40.8523V12.5248C50.2518 11.0401 49.0404 9.83237 47.5517 9.83237ZM17.8955 9.83237L24.5775 2.37152L28.1019 5.53052L16.9569 10.8804L17.8971 9.8323H17.8955V9.83237ZM33.4904 4.60847C34.1243 5.92922 32.8819 3.3406 38.4843 15.0146L11.8059 15.0197C12.0021 14.9255 32.3136 5.17382 33.4904 4.60847ZM4.09677 11.3324H14.5348L13.4174 12.5795L8.33089 15.0212H4.09272C3.07362 15.0212 2.25177 14.1887 2.25177 13.1774C2.25177 12.1412 3.08712 11.3324 4.09677 11.3324ZM44.856 26.7308H36.1329C34.8921 26.7308 33.8829 27.74 33.8829 28.9808V33.4808C33.8829 34.7215 34.8921 35.7308 36.1329 35.7308H44.856V44.7414C44.856 45.401 44.3196 45.9374 43.6604 45.9374H3.44419C2.78464 45.9374 2.24817 45.401 2.24817 44.7414V15.9653C2.77969 16.3179 3.47659 16.5146 4.06647 16.5192C4.07682 16.5193 4.08642 16.5223 4.09684 16.5223C13.1715 16.5223 35.1366 16.5223 43.6593 16.5223C44.2845 16.5223 44.8561 17.0377 44.8561 17.7173V26.7308H44.856ZM44.8557 28.2308V34.2308H36.1329C35.7125 34.2308 35.3829 33.9011 35.3829 33.4808V28.9808C35.3829 28.5673 35.7194 28.2308 36.1329 28.2308H44.8557ZM48.7518 40.8523C48.7518 41.5097 48.2134 42.0446 47.5517 42.0446H46.3593V17.7147C46.3593 16.1722 45.0471 15.0212 43.6604 15.0212H40.1518L38.3814 11.3324H47.5518C48.2135 11.3324 48.7518 11.8674 48.7518 12.5247V40.8523H48.7518Z" fill="#F76425"/>
<path d="M16.4985 35.6572H13.481V38.0951H11.7605V35.6572H9.896V34.2566H11.7605V32.2353H9.896V30.8435H11.7605V24.3809H17.4993C18.9045 24.3809 20.0184 24.7325 20.8411 25.4358C21.6638 26.1391 22.0751 27.0906 22.0751 28.2904C22.0751 29.5492 21.6788 30.5214 20.8861 31.207C20.0995 31.8866 18.9795 32.2294 17.5263 32.2353H13.481V34.2566H16.4985V35.6572ZM13.481 30.8435H17.4993C18.4301 30.8435 19.4187 30.626 19.9051 30.1945C20.3915 29.7631 20.5814 29.1178 20.5814 28.2904C20.5814 27.1687 20.3559 27.0125 19.9051 26.5579C19.4542 26.1033 18.412 25.7875 17.5533 25.7815H13.481V30.8435Z" fill="#F76425"/>
<path d="M37.5114 31.2307C37.5114 31.6449 37.8471 31.9851 38.2614 31.9851C38.6756 31.9851 39.0113 31.6449 39.0113 31.2307C39.0113 30.8165 38.6756 30.4763 38.2614 30.4763C37.8471 30.4763 37.5114 30.8165 37.5114 31.2307Z" fill="#F76425"/>
</svg>
