<?xml version="1.0" standalone="no"?>
<!DOCTYPE svg PUBLIC "-//W3C//DTD SVG 20010904//EN"
 "http://www.w3.org/TR/2001/REC-SVG-20010904/DTD/svg10.dtd">
<svg version="1.0" xmlns="http://www.w3.org/2000/svg"
 width="700.000000pt" height="700.000000pt" viewBox="0 0 700.000000 700.000000"
 preserveAspectRatio="xMidYMid meet">
<metadata>
Created by potrace 1.14, written by Peter Selinger 2001-2017
</metadata>
<g transform="translate(0.000000,700.000000) scale(0.100000,-0.100000)"
fill="#000000" stroke="none">
<path d="M0 3500 l0 -3500 3500 0 3500 0 0 3500 0 3500 -3500 0 -3500 0 0
-3500z m3487 1414 c26 -10 58 -33 83 -61 124 -141 76 -409 -85 -484 -53 -25
-156 -25 -211 0 -52 24 -109 91 -130 154 -23 71 -16 206 15 267 67 131 184
175 328 124z m1135 -10 c89 -45 131 -127 132 -254 0 -132 -50 -226 -146 -274
-111 -55 -245 -23 -313 76 -61 88 -70 231 -20 334 29 59 39 71 86 107 68 51
173 55 261 11z m-3532 -264 l0 -280 -40 0 -40 0 0 250 0 250 -140 0 -140 0 0
-250 0 -250 -35 0 -35 0 0 280 0 280 215 0 215 0 0 -280z m550 250 l0 -30
-160 0 -160 0 0 -90 0 -90 125 0 125 0 0 -25 0 -25 -125 0 -125 0 0 -105 0
-105 165 0 165 0 0 -30 0 -30 -205 0 -205 0 0 280 0 280 200 0 200 0 0 -30z
m435 11 c104 -47 137 -170 68 -251 -42 -51 -77 -63 -195 -68 l-108 -5 0 -108
0 -109 -45 0 -45 0 0 280 0 280 143 0 c116 0 149 -4 182 -19z m595 -11 l0 -30
-160 0 -160 0 0 -90 0 -90 130 0 130 0 0 -25 0 -24 -127 -3 -128 -3 -3 -102
-3 -103 166 0 165 0 0 -30 0 -30 -200 0 -200 0 0 280 0 280 195 0 195 0 0 -30z
m440 0 l0 -30 -120 0 -120 0 0 -250 0 -250 -40 0 -40 0 0 280 0 280 160 0 160
0 0 -30z m951 19 c133 -45 159 -208 48 -292 -35 -26 -90 -36 -186 -37 l-83 0
0 -110 0 -110 -45 0 -45 0 0 280 0 280 139 0 c76 0 153 -5 172 -11z m1163
-239 c72 -201 93 -250 108 -250 16 0 18 -10 18 -90 l0 -90 -30 0 c-28 0 -30 3
-30 38 0 20 -3 47 -6 60 -6 22 -7 22 -215 22 l-209 0 0 -29 c0 -16 -3 -43 -6
-60 -6 -26 -11 -31 -35 -31 l-29 0 0 90 c0 70 3 90 14 90 8 0 17 8 21 18 4 9
42 114 85 232 43 118 81 223 85 233 6 14 19 17 74 17 l66 0 89 -250z m288 90
l3 -161 138 161 c136 157 140 160 178 160 48 0 48 1 -35 -95 -33 -38 -66 -77
-73 -86 -12 -14 1 -41 92 -195 l105 -179 -31 -3 c-17 -2 -37 -1 -43 1 -7 3
-53 71 -101 151 -49 81 -92 145 -96 144 -4 -2 -37 -37 -73 -78 l-66 -75 0 -72
0 -73 -40 0 -40 0 0 280 0 280 40 0 40 0 2 -160z m802 -58 c44 -119 90 -245
103 -280 l23 -63 -41 3 -42 3 -30 78 -30 77 -117 0 -116 0 -25 -77 c-24 -74
-27 -78 -57 -81 -18 -2 -32 0 -32 5 0 4 44 131 97 281 l97 272 46 0 45 0 79
-218z m-5032 -1774 l3 -1183 908 -5 909 -5 94 -229 c52 -126 94 -232 94 -237
0 -5 -552 -8 -1288 -7 l-1287 3 -3 1423 -2 1422 285 0 285 0 2 -1182z m1821
1160 c2 -7 257 -646 566 -1420 308 -774 561 -1410 561 -1413 0 -3 -139 -5
-309 -5 l-309 0 -56 143 c-30 78 -86 223 -124 322 l-70 180 -864 5 -865 5 431
1098 430 1097 302 0 c232 0 303 -3 307 -12z m2597 -7 c209 -29 333 -85 455
-206 149 -147 215 -298 215 -489 0 -55 -7 -130 -16 -166 -42 -180 -173 -351
-336 -437 l-37 -20 79 -32 c208 -85 353 -232 417 -424 25 -75 27 -95 27 -232
0 -174 -16 -245 -83 -388 -100 -210 -270 -349 -501 -410 -84 -22 -92 -22 -795
-22 l-709 0 -138 345 -137 345 0 548 -1 547 633 0 c347 0 665 5 705 10 128 17
210 69 260 164 23 45 26 63 27 146 0 87 -3 100 -30 149 -34 62 -86 104 -159
128 -46 16 -139 18 -997 21 l-947 3 -77 207 c-43 114 -80 213 -83 220 -6 18
2096 11 2228 -7z"/>
<path d="M3305 4851 c-42 -25 -65 -53 -81 -98 -17 -48 -18 -173 -2 -226 36
-121 182 -162 266 -75 42 42 62 106 62 198 0 92 -32 167 -84 200 -43 26 -120
27 -161 1z"/>
<path d="M4408 4845 c-58 -39 -83 -102 -83 -210 1 -98 18 -146 68 -193 50 -47
153 -48 203 -1 48 45 69 106 69 204 0 77 -4 96 -25 135 -35 62 -80 90 -144 90
-38 0 -61 -6 -88 -25z"/>
<path d="M1832 4753 l3 -108 50 -3 c83 -6 153 7 183 33 23 20 27 31 27 75 0
46 -4 55 -33 81 -31 28 -36 29 -132 29 l-101 0 3 -107z"/>
<path d="M3832 4753 l3 -108 50 -3 c139 -9 215 27 215 103 0 44 -25 89 -57
104 -13 6 -67 11 -119 11 l-95 0 3 -107z"/>
<path d="M5045 4858 c-46 -130 -145 -423 -145 -429 0 -5 75 -9 166 -9 129 0
165 3 161 13 -2 6 -37 108 -77 225 -48 140 -77 212 -87 212 -7 0 -16 -6 -18
-12z"/>
<path d="M6176 4830 c-27 -73 -86 -244 -86 -251 0 -5 43 -9 96 -9 92 0 95 1
89 20 -32 101 -94 252 -99 240z"/>
<path d="M2596 2904 c-104 -283 -186 -517 -184 -520 3 -2 176 -3 384 -2 l380
3 -191 517 c-104 285 -193 518 -196 518 -3 0 -90 -232 -193 -516z"/>
<path d="M4600 2115 l0 -357 438 4 c425 4 439 4 494 26 79 32 139 81 173 143
28 51 30 60 30 169 0 96 -4 123 -21 161 -28 59 -76 114 -129 145 -86 50 -147
56 -582 61 l-403 5 0 -357z"/>
</g>
</svg>
